<mxfile host="65bd71144e">
    <diagram id="Fo4rl5hgtW8sDvK_fd4T" name="Page-1">
        <mxGraphModel dx="1536" dy="787" grid="1" gridSize="10" guides="1" tooltips="1" connect="1" arrows="1" fold="1" page="0" pageScale="1" pageWidth="827" pageHeight="1169" math="0" shadow="0">
            <root>
                <mxCell id="0"/>
                <mxCell id="1" parent="0"/>
                <mxCell id="2" value="Process B: &lt;br&gt;Precision &lt;br&gt;Calibration" style="swimlane;html=1;startSize=40;horizontal=0;childLayout=flowLayout;flowOrientation=west;resizable=0;interRankCellSpacing=50;containerType=tree;fontSize=12;" parent="1" vertex="1">
                    <mxGeometry x="80" y="420" width="330" height="80" as="geometry"/>
                </mxCell>
                <mxCell id="3" value="Calibrate Sensitive Instruments" style="whiteSpace=wrap;html=1;" parent="2" vertex="1">
                    <mxGeometry x="60" y="20" width="100" height="40" as="geometry"/>
                </mxCell>
                <mxCell id="4" value="Package Painted Components" style="whiteSpace=wrap;html=1;" parent="2" vertex="1">
                    <mxGeometry x="210" y="20" width="100" height="40" as="geometry"/>
                </mxCell>
                <mxCell id="5" value="" style="html=1;rounded=1;curved=0;sourcePerimeterSpacing=0;targetPerimeterSpacing=0;startSize=6;endSize=6;noEdgeStyle=1;orthogonal=1;" parent="2" source="3" target="4" edge="1">
                    <mxGeometry relative="1" as="geometry">
                        <Array as="points">
                            <mxPoint x="172" y="40"/>
                            <mxPoint x="198" y="40"/>
                        </Array>
                    </mxGeometry>
                </mxCell>
                <mxCell id="15" value="Process A: &lt;br&gt;Welding" style="swimlane;html=1;startSize=40;horizontal=0;childLayout=flowLayout;flowOrientation=west;resizable=0;interRankCellSpacing=50;containerType=tree;fontSize=12;" parent="1" vertex="1">
                    <mxGeometry x="80" y="280" width="330" height="80" as="geometry"/>
                </mxCell>
                <mxCell id="16" value="Weld Components" style="whiteSpace=wrap;html=1;" parent="15" vertex="1">
                    <mxGeometry x="60" y="20" width="100" height="40" as="geometry"/>
                </mxCell>
                <mxCell id="17" value="Packing Components" style="whiteSpace=wrap;html=1;" parent="15" vertex="1">
                    <mxGeometry x="210" y="20" width="100" height="40" as="geometry"/>
                </mxCell>
                <mxCell id="18" value="" style="html=1;rounded=1;curved=0;sourcePerimeterSpacing=0;targetPerimeterSpacing=0;startSize=6;endSize=6;noEdgeStyle=1;orthogonal=1;" parent="15" source="16" target="17" edge="1">
                    <mxGeometry relative="1" as="geometry">
                        <Array as="points">
                            <mxPoint x="172" y="40"/>
                            <mxPoint x="198" y="40"/>
                        </Array>
                    </mxGeometry>
                </mxCell>
                <mxCell id="50" style="edgeStyle=none;html=1;exitX=0.5;exitY=0;exitDx=0;exitDy=0;dashed=1;startArrow=oval;startFill=0;endArrow=block;endFill=0;entryX=0.5;entryY=1;entryDx=0;entryDy=0;" parent="1" source="3" target="17" edge="1">
                    <mxGeometry relative="1" as="geometry">
                        <mxPoint x="600" y="430" as="sourcePoint"/>
                        <mxPoint x="250" y="388.5999999999999" as="targetPoint"/>
                        <Array as="points"/>
                    </mxGeometry>
                </mxCell>
            </root>
        </mxGraphModel>
    </diagram>
</mxfile>